<mxfile host="65bd71144e">
    <diagram id="UV-O2sAx2KZoK0ahB6fU" name="Page-1">
        <mxGraphModel dx="1354" dy="926" grid="1" gridSize="10" guides="1" tooltips="1" connect="1" arrows="1" fold="1" page="1" pageScale="1" pageWidth="850" pageHeight="1100" math="0" shadow="0">
            <root>
                <mxCell id="0"/>
                <mxCell id="1" parent="0"/>
                <mxCell id="7" value="STATUT&lt;hr&gt;&lt;span style=&quot;color: rgb(239, 31, 31);&quot;&gt;(PK)&amp;nbsp;&amp;nbsp;&lt;/span&gt;ID : int&lt;br&gt;TITRE : string" style="rounded=0;whiteSpace=wrap;html=1;verticalAlign=top;" parent="1" vertex="1">
                    <mxGeometry x="170" y="810" width="140" height="100" as="geometry"/>
                </mxCell>
                <mxCell id="8" value="TAG&lt;hr&gt;&lt;span style=&quot;color: rgb(239, 31, 31);&quot;&gt;(PK)&amp;nbsp;&amp;nbsp;&lt;/span&gt;id: int&lt;br&gt;title: int" style="rounded=0;whiteSpace=wrap;html=1;verticalAlign=top;" parent="1" vertex="1">
                    <mxGeometry x="450" y="810" width="140" height="100" as="geometry"/>
                </mxCell>
                <mxCell id="39" style="edgeStyle=none;html=1;exitX=0.75;exitY=0;exitDx=0;exitDy=0;fontColor=#f40b0b;" edge="1" parent="1" source="16" target="31">
                    <mxGeometry relative="1" as="geometry"/>
                </mxCell>
                <mxCell id="16" value="&lt;span style=&quot;color: rgb(255, 255, 255); font-family: ui-monospace, SFMono-Regular, &amp;quot;SF Mono&amp;quot;, Menlo, Consolas, &amp;quot;Liberation Mono&amp;quot;, monospace; font-size: 14px; text-align: left; background-color: rgb(13, 13, 13);&quot;&gt;ProjectTags&lt;/span&gt;&lt;hr&gt;ID : int&lt;br&gt;project_id: int&lt;br&gt;&lt;font color=&quot;#e01010&quot;&gt;(FK) &lt;/font&gt;tag_id: int" style="rounded=0;whiteSpace=wrap;html=1;verticalAlign=top;" vertex="1" parent="1">
                    <mxGeometry x="70" y="590" width="140" height="100" as="geometry"/>
                </mxCell>
                <mxCell id="40" style="edgeStyle=none;html=1;exitX=0.5;exitY=1;exitDx=0;exitDy=0;fontColor=#f40b0b;" edge="1" parent="1" source="16" target="7">
                    <mxGeometry relative="1" as="geometry">
                        <mxPoint x="174.99999999999977" y="740" as="sourcePoint"/>
                    </mxGeometry>
                </mxCell>
                <mxCell id="38" style="edgeStyle=none;html=1;exitX=0.75;exitY=0;exitDx=0;exitDy=0;entryX=0.75;entryY=1;entryDx=0;entryDy=0;fontColor=#f40b0b;" edge="1" parent="1" source="18" target="31">
                    <mxGeometry relative="1" as="geometry"/>
                </mxCell>
                <mxCell id="18" value="&lt;span style=&quot;color: rgb(255, 255, 255); font-family: ui-monospace, SFMono-Regular, &amp;quot;SF Mono&amp;quot;, Menlo, Consolas, &amp;quot;Liberation Mono&amp;quot;, monospace; font-size: 14px; text-align: left; background-color: rgb(13, 13, 13);&quot;&gt;ProjectStatut&lt;/span&gt;&lt;hr&gt;ID : int&lt;br&gt;project_id: int&lt;br&gt;&lt;font color=&quot;#eb1414&quot;&gt;(FK)&lt;/font&gt; tag_id: int" style="rounded=0;whiteSpace=wrap;html=1;verticalAlign=top;" vertex="1" parent="1">
                    <mxGeometry x="230" y="590" width="140" height="100" as="geometry"/>
                </mxCell>
                <mxCell id="41" style="edgeStyle=none;html=1;exitX=0.686;exitY=1.005;exitDx=0;exitDy=0;entryX=0.686;entryY=-0.031;entryDx=0;entryDy=0;entryPerimeter=0;fontColor=#f40b0b;exitPerimeter=0;" edge="1" parent="1" source="18" target="7">
                    <mxGeometry relative="1" as="geometry">
                        <mxPoint x="299.9999999999998" y="740" as="sourcePoint"/>
                    </mxGeometry>
                </mxCell>
                <mxCell id="37" style="edgeStyle=none;html=1;exitX=0.75;exitY=0;exitDx=0;exitDy=0;entryX=0.25;entryY=1;entryDx=0;entryDy=0;fontColor=#f40b0b;" edge="1" parent="1" source="20" target="30">
                    <mxGeometry relative="1" as="geometry"/>
                </mxCell>
                <mxCell id="42" style="edgeStyle=none;html=1;exitX=0.25;exitY=1;exitDx=0;exitDy=0;fontColor=#f40b0b;" edge="1" parent="1" source="20" target="8">
                    <mxGeometry relative="1" as="geometry"/>
                </mxCell>
                <mxCell id="20" value="&lt;span style=&quot;color: rgb(255, 255, 255); font-family: ui-monospace, SFMono-Regular, &amp;quot;SF Mono&amp;quot;, Menlo, Consolas, &amp;quot;Liberation Mono&amp;quot;, monospace; font-size: 14px; text-align: left; background-color: rgb(13, 13, 13);&quot;&gt;TaskTags&lt;/span&gt;&lt;hr&gt;ID : int&lt;br&gt;task_id: int&lt;br&gt;&lt;font color=&quot;#f50f0f&quot;&gt;(FK)&lt;/font&gt; tag_id: int" style="rounded=0;whiteSpace=wrap;html=1;verticalAlign=top;" vertex="1" parent="1">
                    <mxGeometry x="410" y="590" width="140" height="100" as="geometry"/>
                </mxCell>
                <mxCell id="36" style="edgeStyle=none;html=1;exitX=0.5;exitY=0;exitDx=0;exitDy=0;entryX=0.75;entryY=1;entryDx=0;entryDy=0;fontColor=#f40b0b;" edge="1" parent="1" source="22" target="30">
                    <mxGeometry relative="1" as="geometry"/>
                </mxCell>
                <mxCell id="43" style="edgeStyle=none;html=1;exitX=0.5;exitY=1;exitDx=0;exitDy=0;entryX=0.686;entryY=0.005;entryDx=0;entryDy=0;entryPerimeter=0;fontColor=#f40b0b;" edge="1" parent="1" source="22" target="8">
                    <mxGeometry relative="1" as="geometry"/>
                </mxCell>
                <mxCell id="22" value="&lt;div style=&quot;&quot;&gt;&lt;font face=&quot;ui-monospace, SFMono-Regular, SF Mono, Menlo, Consolas, Liberation Mono, monospace&quot; color=&quot;#ffffff&quot;&gt;&lt;span style=&quot;font-size: 14px; background-color: rgb(13, 13, 13);&quot;&gt;TaskStatut&lt;/span&gt;&lt;/font&gt;&lt;/div&gt;&lt;hr&gt;&lt;div style=&quot;&quot;&gt;&lt;span style=&quot;background-color: initial;&quot;&gt;ID : int&lt;/span&gt;&lt;/div&gt;task_id: int&lt;br&gt;&lt;font color=&quot;#f21818&quot;&gt;(FK)&lt;/font&gt; tag_id: int" style="rounded=0;whiteSpace=wrap;html=1;verticalAlign=top;align=center;" vertex="1" parent="1">
                    <mxGeometry x="570" y="590" width="140" height="100" as="geometry"/>
                </mxCell>
                <mxCell id="24" style="edgeStyle=none;html=1;exitX=0.5;exitY=0;exitDx=0;exitDy=0;" edge="1" parent="1" source="25" target="29">
                    <mxGeometry relative="1" as="geometry"/>
                </mxCell>
                <mxCell id="25" value="TYPE&lt;hr&gt;&lt;font color=&quot;#ef1f1f&quot;&gt;(PK)&amp;nbsp;&lt;/font&gt; id: int&lt;br&gt;title: int" style="rounded=0;whiteSpace=wrap;html=1;verticalAlign=top;" vertex="1" parent="1">
                    <mxGeometry x="780" y="810" width="120" height="100" as="geometry"/>
                </mxCell>
                <mxCell id="26" style="edgeStyle=none;html=1;exitX=0.5;exitY=0;exitDx=0;exitDy=0;" edge="1" parent="1" target="25">
                    <mxGeometry relative="1" as="geometry">
                        <mxPoint x="840" y="930" as="sourcePoint"/>
                    </mxGeometry>
                </mxCell>
                <mxCell id="34" style="edgeStyle=none;html=1;exitX=0.5;exitY=0;exitDx=0;exitDy=0;entryX=1.018;entryY=0.81;entryDx=0;entryDy=0;entryPerimeter=0;fontColor=#f40b0b;" edge="1" parent="1" source="28" target="30">
                    <mxGeometry relative="1" as="geometry">
                        <Array as="points">
                            <mxPoint x="840" y="447"/>
                        </Array>
                    </mxGeometry>
                </mxCell>
                <mxCell id="28" value="&lt;div style=&quot;&quot;&gt;&lt;font face=&quot;ui-monospace, SFMono-Regular, SF Mono, Menlo, Consolas, Liberation Mono, monospace&quot; color=&quot;#ffffff&quot;&gt;&lt;span style=&quot;font-size: 14px; background-color: rgb(13, 13, 13);&quot;&gt;TaskType&lt;/span&gt;&lt;/font&gt;&lt;/div&gt;&lt;hr&gt;&lt;div style=&quot;&quot;&gt;&lt;span style=&quot;background-color: initial;&quot;&gt;ID : int&lt;/span&gt;&lt;/div&gt;task_id: int&lt;br&gt;&lt;font color=&quot;#f40b0b&quot;&gt;(FK) &lt;/font&gt;type_id: int" style="rounded=0;whiteSpace=wrap;html=1;verticalAlign=top;align=center;" vertex="1" parent="1">
                    <mxGeometry x="770" y="590" width="140" height="100" as="geometry"/>
                </mxCell>
                <mxCell id="29" value="+getTaskType()&lt;br&gt;+getTaskTypeId()&lt;br&gt;+getTaskTypeTitle()" style="rounded=0;whiteSpace=wrap;html=1;" vertex="1" parent="1">
                    <mxGeometry x="770" y="690" width="140" height="50" as="geometry"/>
                </mxCell>
                <mxCell id="44" style="edgeStyle=none;html=1;exitX=0;exitY=0.5;exitDx=0;exitDy=0;entryX=1;entryY=0.5;entryDx=0;entryDy=0;fontColor=#f40b0b;" edge="1" parent="1" source="30" target="31">
                    <mxGeometry relative="1" as="geometry"/>
                </mxCell>
                <mxCell id="30" value="TASK&lt;br&gt;&lt;hr&gt;&lt;span style=&quot;color: rgb(231, 19, 19);&quot;&gt;(PK)&amp;nbsp;&lt;/span&gt;id: int&lt;br&gt;&lt;span style=&quot;color: rgb(242, 7, 7);&quot;&gt;(FK)&amp;nbsp;&lt;/span&gt;project_id: int&lt;br&gt;title: string&lt;span style=&quot;&quot;&gt;&#9;&lt;/span&gt;&lt;br&gt;description: varchar&lt;br&gt;date_start: date&lt;br&gt;date_end: date&lt;br&gt;&lt;span style=&quot;color: rgb(242, 7, 7);&quot;&gt;(FK)&amp;nbsp;&lt;/span&gt;assigned_user: int&lt;br&gt;&lt;font style=&quot;&quot;&gt;&lt;br&gt;&lt;br&gt;&lt;br&gt;&lt;/font&gt;" style="rounded=0;whiteSpace=wrap;html=1;verticalAlign=top;" vertex="1" parent="1">
                    <mxGeometry x="520" y="285" width="140" height="200" as="geometry"/>
                </mxCell>
                <mxCell id="31" value="PROJECT&lt;hr&gt;&lt;font color=&quot;#ed1212&quot;&gt;(PK)&lt;/font&gt;&amp;nbsp;id: int&lt;br&gt;name: string&lt;br&gt;description : string&lt;br&gt;date_start: date&lt;br&gt;date_end: date&lt;br&gt;&lt;font color=&quot;#ed1212&quot;&gt;(FK)&lt;/font&gt;&amp;nbsp;user_list: array" style="rounded=0;whiteSpace=wrap;html=1;verticalAlign=top;" vertex="1" parent="1">
                    <mxGeometry x="150" y="310" width="140" height="150" as="geometry"/>
                </mxCell>
                <mxCell id="35" style="edgeStyle=none;html=1;exitX=0;exitY=0.5;exitDx=0;exitDy=0;entryX=1;entryY=0.5;entryDx=0;entryDy=0;fontColor=#f40b0b;" edge="1" parent="1" source="32" target="30">
                    <mxGeometry relative="1" as="geometry"/>
                </mxCell>
                <mxCell id="32" value="CRENEAU&lt;hr&gt;&lt;span style=&quot;color: rgb(239, 11, 11);&quot;&gt;(PK)&amp;nbsp;&lt;/span&gt;ID : int&lt;br&gt;&lt;span style=&quot;color: rgb(239, 11, 11);&quot;&gt;(FK)&amp;nbsp;&lt;/span&gt;task_id: int&lt;br&gt;&lt;span style=&quot;color: rgb(239, 11, 11);&quot;&gt;(FK)&amp;nbsp;&lt;/span&gt;users_id: int&lt;br&gt;&lt;font style=&quot;&quot;&gt;date_end:date&amp;nbsp;&lt;br&gt;date_start: date&lt;br&gt;&lt;/font&gt;" style="rounded=0;whiteSpace=wrap;html=1;verticalAlign=top;" vertex="1" parent="1">
                    <mxGeometry x="870" y="310" width="120" height="150" as="geometry"/>
                </mxCell>
                <mxCell id="45" style="edgeStyle=none;html=1;exitX=0.5;exitY=1;exitDx=0;exitDy=0;fontColor=#f40b0b;" edge="1" parent="1" source="33">
                    <mxGeometry relative="1" as="geometry">
                        <mxPoint x="560" y="280" as="targetPoint"/>
                    </mxGeometry>
                </mxCell>
                <mxCell id="46" style="edgeStyle=none;html=1;exitX=0;exitY=1;exitDx=0;exitDy=0;entryX=1;entryY=0;entryDx=0;entryDy=0;fontColor=#f40b0b;" edge="1" parent="1" source="33" target="31">
                    <mxGeometry relative="1" as="geometry"/>
                </mxCell>
                <mxCell id="47" style="edgeStyle=none;html=1;exitX=1;exitY=1;exitDx=0;exitDy=0;fontColor=#f40b0b;" edge="1" parent="1" source="33">
                    <mxGeometry relative="1" as="geometry">
                        <mxPoint x="870" y="310" as="targetPoint"/>
                    </mxGeometry>
                </mxCell>
                <mxCell id="33" value="USER&lt;hr&gt;&lt;font color=&quot;#e11414&quot;&gt;(PK)&lt;/font&gt;&amp;nbsp;id&amp;nbsp;: int&lt;br&gt;email: string&lt;br&gt;password: string&lt;br&gt;rank: array&lt;br&gt;name: string&lt;br&gt;prenom: string&lt;br&gt;active: int&lt;br&gt;contract: string&lt;br&gt;date: date" style="rounded=0;whiteSpace=wrap;html=1;verticalAlign=top;" vertex="1" parent="1">
                    <mxGeometry x="500" y="20" width="120" height="170" as="geometry"/>
                </mxCell>
            </root>
        </mxGraphModel>
    </diagram>
</mxfile>